<svg id="Layer_1" data-name="Layer 1" xmlns="http://www.w3.org/2000/svg" viewBox="0 0 435.94 183.26"><defs><style>.cls-1{fill:#3b6891;}.cls-2{fill:#303030;}</style></defs><title>logo</title><polygon class="cls-1" points="49.54 140.83 49.54 56.6 72.13 56.6 72.13 51.6 44.54 51.6 44.54 145.83 226.64 145.83 226.64 140.83 49.54 140.83"/><path class="cls-2" d="M88.77,75.21a22.56,22.56,0,0,1-8.7-1.65,21.4,21.4,0,0,1-6.9-4.5,20.74,20.74,0,0,1-4.55-6.67A20.41,20.41,0,0,1,67,54.22V54.1a20.69,20.69,0,0,1,6.26-14.93,21.85,21.85,0,0,1,7-4.52,23.72,23.72,0,0,1,17.4,0,21.43,21.43,0,0,1,6.9,4.5A20.77,20.77,0,0,1,109,45.81,20.41,20.41,0,0,1,110.7,54v.12A20.69,20.69,0,0,1,104.43,69a21.85,21.85,0,0,1-7,4.52A22.56,22.56,0,0,1,88.77,75.21Zm.09-10.15a10.17,10.17,0,0,0,4.25-.87,9.77,9.77,0,0,0,3.26-2.35,10.91,10.91,0,0,0,2.09-3.45,11.56,11.56,0,0,0,.76-4.18V54.1a11.57,11.57,0,0,0-.76-4.18,10.74,10.74,0,0,0-2.15-3.48A10.6,10.6,0,0,0,93,44a10.56,10.56,0,0,0-8.46,0,10.11,10.11,0,0,0-5.35,5.8A12,12,0,0,0,78.45,54v.12a11.56,11.56,0,0,0,.76,4.18,11,11,0,0,0,2.12,3.48,10.24,10.24,0,0,0,3.29,2.41A9.88,9.88,0,0,0,88.86,65.06Z"/><path class="cls-2" d="M115.22,33.8h17.4a23.77,23.77,0,0,1,7,1,15.2,15.2,0,0,1,5.34,2.78,12.21,12.21,0,0,1,3.39,4.5,14.68,14.68,0,0,1,1.19,6v.12a14.48,14.48,0,0,1-1.31,6.32,12.94,12.94,0,0,1-3.62,4.58A15.72,15.72,0,0,1,139,61.87a25.16,25.16,0,0,1-7,.93h-5.57V74.4H115.22ZM131.81,54a7.16,7.16,0,0,0,4.73-1.43,4.79,4.79,0,0,0,1.71-3.88v-.12a4.82,4.82,0,0,0-1.71-4,7.47,7.47,0,0,0-4.79-1.37h-5.28V54Z"/><path class="cls-2" d="M152.92,33.8h32.6v9.57H164v6.15h19.49v8.87H164v6.44h21.81V74.4H152.92Z"/><path class="cls-2" d="M190.27,33.8h10.52l16.74,21.46V33.8h11.08V74.4h-9.88L201.35,52.13V74.4H190.27Z"/><path class="cls-2" d="M67,134.58V95.31h4.42l1.15,2.9a12.2,12.2,0,0,1,3.87-2.61,12.45,12.45,0,0,1,4.91-.93,12.77,12.77,0,0,1,5.38,1.13A13.14,13.14,0,0,1,91,98.91a14.42,14.42,0,0,1,2.82,4.64,16.38,16.38,0,0,1,0,11.37A14.4,14.4,0,0,1,91,119.56a13.12,13.12,0,0,1-4.27,3.1,12.77,12.77,0,0,1-5.38,1.13,12.2,12.2,0,0,1-5-1,11.18,11.18,0,0,1-3.78-2.75v14.5ZM80.9,99.78a9.3,9.3,0,0,0-3.2.55,6.89,6.89,0,0,0-2.65,1.74,8.32,8.32,0,0,0-1.78,3,12.38,12.38,0,0,0-.64,4.21,13.5,13.5,0,0,0,.64,4.44,7.69,7.69,0,0,0,1.78,3,6.89,6.89,0,0,0,2.65,1.65,9.74,9.74,0,0,0,3.2.52,7.08,7.08,0,0,0,3.2-.75A8.18,8.18,0,0,0,86.72,116a10,10,0,0,0,1.75-3,11.07,11.07,0,0,0,0-7.42,9.62,9.62,0,0,0-1.75-3,8,8,0,0,0-2.62-2A7.31,7.31,0,0,0,80.9,99.78Z"/><path class="cls-2" d="M105.64,80.75v42.34H100V80.75Z"/><path class="cls-2" d="M138.35,95.31v27.78h-4.76l-.87-3.19a9.17,9.17,0,0,1-3.71,2.9,11.38,11.38,0,0,1-4.58,1,13.1,13.1,0,0,1-5.42-1.13,13.89,13.89,0,0,1-4.41-3.1,15,15,0,0,1,0-20.65,13.91,13.91,0,0,1,4.41-3.1,13.1,13.1,0,0,1,5.42-1.13,11.45,11.45,0,0,1,4.47.9,10.48,10.48,0,0,1,3.83,2.81l.87-3.07ZM124.43,118.8a7,7,0,0,0,3.19-.75,8.16,8.16,0,0,0,2.61-2.06,10.05,10.05,0,0,0,1.74-3,11.12,11.12,0,0,0,0-7.42,10.05,10.05,0,0,0-1.74-3,8.19,8.19,0,0,0-2.61-2.06,7.13,7.13,0,0,0-6.38,0,8.17,8.17,0,0,0-2.61,2.06,10,10,0,0,0-1.74,3,11.12,11.12,0,0,0,0,7.42,10,10,0,0,0,1.74,3,8.14,8.14,0,0,0,2.61,2.06A7,7,0,0,0,124.43,118.8Z"/><path class="cls-2" d="M149.6,123.09H144V95.31h4.47l1.16,2.44a11.54,11.54,0,0,1,3.36-2.2,10.51,10.51,0,0,1,4.29-.87,14.71,14.71,0,0,1,3.42.46,9.45,9.45,0,0,1,3.57,1.74,10,10,0,0,1,2.78,3.54,13.12,13.12,0,0,1,1.13,5.86v16.82h-5.34V106.22a7.53,7.53,0,0,0-.55-3,5.26,5.26,0,0,0-3.48-3.07,8.64,8.64,0,0,0-2.35-.32,7.62,7.62,0,0,0-2.12.35,7,7,0,0,0-4,3.1,5.53,5.53,0,0,0-.73,2.93Z"/><path class="cls-2" d="M180.57,123.09h-5.63V95.31h4.47l1.16,2.44a11.54,11.54,0,0,1,3.36-2.2,10.51,10.51,0,0,1,4.29-.87,14.71,14.71,0,0,1,3.42.46,9.45,9.45,0,0,1,3.57,1.74,10,10,0,0,1,2.78,3.54,13.12,13.12,0,0,1,1.13,5.86v16.82H193.8V106.22a7.53,7.53,0,0,0-.55-3,5.26,5.26,0,0,0-3.48-3.07,8.64,8.64,0,0,0-2.35-.32,7.62,7.62,0,0,0-2.12.35,7,7,0,0,0-4,3.1,5.53,5.53,0,0,0-.73,2.93Z"/><path class="cls-2" d="M219.2,123.79a14.2,14.2,0,0,1-5.66-1.13,14.51,14.51,0,0,1-8.84-13.43,15.21,15.21,0,0,1,4-10.32,13.52,13.52,0,0,1,4.26-3.1,12.25,12.25,0,0,1,5.22-1.13,13.73,13.73,0,0,1,5.25,1,10.79,10.79,0,0,1,4.18,3.07,14.82,14.82,0,0,1,2.75,5.31,26.42,26.42,0,0,1,1,7.69H210.67a9.45,9.45,0,0,0,1.28,2.81A10,10,0,0,0,214,116.8a9,9,0,0,0,2.67,1.48,9.25,9.25,0,0,0,3.1.52,10.32,10.32,0,0,0,7.31-3l3.48,3.48a15.14,15.14,0,0,1-5,3.25A16.53,16.53,0,0,1,219.2,123.79Zm-1-24a6.2,6.2,0,0,0-2.52.52,8.06,8.06,0,0,0-2.2,1.45,9,9,0,0,0-1.74,2.2,10.27,10.27,0,0,0-1.07,2.78h14.67a9,9,0,0,0-.64-2.67,7,7,0,0,0-1.45-2.23,6.88,6.88,0,0,0-2.17-1.51A7.06,7.06,0,0,0,218.16,99.78Z"/><path class="cls-2" d="M252.72,100.13q-.35-.12-.81-.23a4.09,4.09,0,0,0-1-.12,8.75,8.75,0,0,0-3.13.55,8,8,0,0,0-2.49,1.48,7,7,0,0,0-1.65,2.18,5.93,5.93,0,0,0-.61,2.64L243,123.09h-5.63V95.31h4.47L243,98.39a8.56,8.56,0,0,1,3-2.7,9.89,9.89,0,0,1,4.73-1,20,20,0,0,1,4.23.52l-1.45,5.28Z"/><path class="cls-2" d="M282.94,124a8.45,8.45,0,0,1-4.18-.67,6.53,6.53,0,0,1-3-3,12.51,12.51,0,0,1-1.16-5.95V100.3h-4.06V96.46l4.06-1.15V87.89h5.63v7.42h7.54v5h-7.54v15a6.17,6.17,0,0,0,.32,2.2,2.28,2.28,0,0,0,1.07,1.22,4.15,4.15,0,0,0,2,.41,22.92,22.92,0,0,0,3-.23l1.1,4.12A18.92,18.92,0,0,1,282.94,124Z"/><path class="cls-2" d="M305.56,123.79a14.2,14.2,0,0,1-5.66-1.13,14.51,14.51,0,0,1-8.84-13.43,15.21,15.21,0,0,1,4-10.32,13.52,13.52,0,0,1,4.26-3.1,12.25,12.25,0,0,1,5.22-1.13,13.73,13.73,0,0,1,5.25,1,10.79,10.79,0,0,1,4.18,3.07A14.82,14.82,0,0,1,316.7,104a26.42,26.42,0,0,1,1,7.69H297a9.45,9.45,0,0,0,1.28,2.81,10,10,0,0,0,2.06,2.26,9,9,0,0,0,2.67,1.48,9.25,9.25,0,0,0,3.1.52,10.32,10.32,0,0,0,7.31-3l3.48,3.48a15.14,15.14,0,0,1-5,3.25A16.53,16.53,0,0,1,305.56,123.79Zm-1-24a6.2,6.2,0,0,0-2.52.52,8.06,8.06,0,0,0-2.2,1.45,9,9,0,0,0-1.74,2.2,10.27,10.27,0,0,0-1.07,2.78h14.67a9,9,0,0,0-.64-2.67,7,7,0,0,0-1.45-2.23,6.88,6.88,0,0,0-2.17-1.51A7.06,7.06,0,0,0,304.52,99.78Z"/><path class="cls-2" d="M349.47,95.31v27.78h-4.76l-.87-3.19a9.17,9.17,0,0,1-3.71,2.9,11.38,11.38,0,0,1-4.58,1,13.1,13.1,0,0,1-5.42-1.13,13.89,13.89,0,0,1-4.41-3.1,15,15,0,0,1,0-20.65,13.91,13.91,0,0,1,4.41-3.1,13.1,13.1,0,0,1,5.42-1.13,11.45,11.45,0,0,1,4.47.9,10.48,10.48,0,0,1,3.83,2.81l.87-3.07ZM335.55,118.8a7,7,0,0,0,3.19-.75,8.16,8.16,0,0,0,2.61-2.06,10.05,10.05,0,0,0,1.74-3,11.12,11.12,0,0,0,0-7.42,10.05,10.05,0,0,0-1.74-3,8.19,8.19,0,0,0-2.61-2.06,7.13,7.13,0,0,0-6.38,0,8.17,8.17,0,0,0-2.61,2.06,10,10,0,0,0-1.74,3,11.12,11.12,0,0,0,0,7.42,10,10,0,0,0,1.74,3,8.14,8.14,0,0,0,2.61,2.06A7,7,0,0,0,335.55,118.8Z"/><path class="cls-2" d="M360.83,123.09h-5.63V95.31h4.47l1.16,2.38a10.64,10.64,0,0,1,2.49-2.12,6.59,6.59,0,0,1,3.54-.9,9.42,9.42,0,0,1,1.83.2,9.52,9.52,0,0,1,2.09.7,9,9,0,0,1,2.06,1.33,7.19,7.19,0,0,1,1.68,2.17,8.77,8.77,0,0,1,3-3.1,7.67,7.67,0,0,1,4.26-1.3,12,12,0,0,1,3.19.46,7.92,7.92,0,0,1,3.13,1.74,9.34,9.34,0,0,1,2.38,3.54,15.65,15.65,0,0,1,.93,5.86v16.82h-5.28V106.22q0-3.6-1.48-5a5.42,5.42,0,0,0-3.92-1.42,4.23,4.23,0,0,0-3.25,1.57q-1.39,1.57-1.39,4.93v16.82h-5.28V106.22q0-3.6-1.48-5a5.42,5.42,0,0,0-3.92-1.42,4.13,4.13,0,0,0-3,1.33,6.58,6.58,0,0,0-1.54,4.18Z"/><path class="cls-2" d="M231.3,150.27a7.41,7.41,0,0,1-2.86-.54,7,7,0,0,1-2.27-1.48,6.81,6.81,0,0,1-1.5-2.19,6.7,6.7,0,0,1-.54-2.69v0a6.8,6.8,0,0,1,2.06-4.91,7.18,7.18,0,0,1,2.29-1.49,7.79,7.79,0,0,1,5.71,0,7,7,0,0,1,2.27,1.48,6.82,6.82,0,0,1,1.5,2.19,6.7,6.7,0,0,1,.54,2.69v0a6.79,6.79,0,0,1-2.06,4.91,7.18,7.18,0,0,1-2.29,1.49A7.41,7.41,0,0,1,231.3,150.27Zm0-3.33a3.34,3.34,0,0,0,1.39-.29,3.21,3.21,0,0,0,1.07-.77,3.58,3.58,0,0,0,.69-1.13,3.8,3.8,0,0,0,.25-1.37v0a3.8,3.8,0,0,0-.25-1.37,3.53,3.53,0,0,0-.71-1.14,3.48,3.48,0,0,0-1.09-.79,3.47,3.47,0,0,0-2.78,0,3.32,3.32,0,0,0-1.76,1.9,3.93,3.93,0,0,0-.24,1.37v0a3.8,3.8,0,0,0,.25,1.37,3.6,3.6,0,0,0,.7,1.14,3.36,3.36,0,0,0,1.08.79A3.25,3.25,0,0,0,231.33,146.93Z"/><path class="cls-1" d="M259.08,122.56a3.36,3.36,0,0,0,1.08.79,3.25,3.25,0,0,0,1.39.3,3.34,3.34,0,0,0,1.39-.29,3.21,3.21,0,0,0,1.07-.77,3.58,3.58,0,0,0,.69-1.13,3.8,3.8,0,0,0,.25-1.37v0a3.8,3.8,0,0,0-.25-1.37,3.53,3.53,0,0,0-.71-1.14,3.48,3.48,0,0,0-1.09-.79,3.47,3.47,0,0,0-2.78,0,3.32,3.32,0,0,0-1.76,1.9,3.93,3.93,0,0,0-.24,1.37v0a3.8,3.8,0,0,0,.25,1.37A3.6,3.6,0,0,0,259.08,122.56Z"/></svg>