<svg id="Layer_1" data-name="Layer 1" xmlns="http://www.w3.org/2000/svg" viewBox="0 0 185 185"><defs><style>.cls-1{fill:#3b6891;}.cls-2{fill:#303030;}</style></defs><title>logo</title><polygon class="cls-1" points="38.02 146.71 38.02 52.47 60.61 52.47 60.61 47.47 33.02 47.47 33.02 151.71 140.12 151.71 140.12 146.71 38.02 146.71"/><path class="cls-2" d="M144.78,156.14a7.41,7.41,0,0,1-2.86-.54,7,7,0,0,1-2.27-1.48,6.81,6.81,0,0,1-1.5-2.19,6.7,6.7,0,0,1-.54-2.69v0a6.8,6.8,0,0,1,2.06-4.91,7.18,7.18,0,0,1,2.29-1.49,7.79,7.79,0,0,1,5.71,0,7,7,0,0,1,2.27,1.48,6.82,6.82,0,0,1,1.5,2.19,6.7,6.7,0,0,1,.54,2.69v0a6.79,6.79,0,0,1-2.06,4.91,7.18,7.18,0,0,1-2.29,1.49A7.41,7.41,0,0,1,144.78,156.14Zm0-3.33a3.34,3.34,0,0,0,1.39-.29,3.21,3.21,0,0,0,1.07-.77,3.58,3.58,0,0,0,.69-1.13,3.8,3.8,0,0,0,.25-1.37v0a3.8,3.8,0,0,0-.25-1.37,3.53,3.53,0,0,0-.71-1.14,3.48,3.48,0,0,0-1.09-.79,3.47,3.47,0,0,0-2.78,0,3.32,3.32,0,0,0-1.76,1.9,3.93,3.93,0,0,0-.24,1.37v0a3.8,3.8,0,0,0,.25,1.37,3.6,3.6,0,0,0,.7,1.14,3.36,3.36,0,0,0,1.08.79A3.25,3.25,0,0,0,144.81,152.81Z"/><path class="cls-2" d="M44.29,142.66v-19.5h2.19l.57,1.44a6.06,6.06,0,0,1,1.92-1.3,6.18,6.18,0,0,1,2.44-.46,6.34,6.34,0,0,1,2.67.56A6.52,6.52,0,0,1,56.2,125a7.16,7.16,0,0,1,1.4,2.3,8.13,8.13,0,0,1,0,5.64,7.15,7.15,0,0,1-1.4,2.3,6.52,6.52,0,0,1-2.12,1.54,6.34,6.34,0,0,1-2.67.56,6.06,6.06,0,0,1-2.48-.48,5.55,5.55,0,0,1-1.88-1.37v7.2Zm6.9-17.28a4.62,4.62,0,0,0-1.59.27,3.42,3.42,0,0,0-1.32.86A4.13,4.13,0,0,0,47.4,128a6.15,6.15,0,0,0-.32,2.09,6.7,6.7,0,0,0,.32,2.2,3.82,3.82,0,0,0,.88,1.47,3.42,3.42,0,0,0,1.32.82,4.84,4.84,0,0,0,1.59.26,3.51,3.51,0,0,0,1.59-.37,4.06,4.06,0,0,0,1.3-1,5,5,0,0,0,.87-1.51,5.5,5.5,0,0,0,0-3.69,4.78,4.78,0,0,0-.87-1.5,4,4,0,0,0-1.3-1A3.63,3.63,0,0,0,51.18,125.39Z"/><path class="cls-2" d="M63.47,115.94v21H60.67v-21Z"/><path class="cls-2" d="M79.71,123.17V137H77.35l-.43-1.58a4.55,4.55,0,0,1-1.84,1.44,5.65,5.65,0,0,1-2.28.49,6.51,6.51,0,0,1-2.69-.56,6.9,6.9,0,0,1-2.19-1.54,7.47,7.47,0,0,1,0-10.25,6.91,6.91,0,0,1,2.19-1.54,6.51,6.51,0,0,1,2.69-.56,5.69,5.69,0,0,1,2.22.45,5.2,5.2,0,0,1,1.9,1.4l.43-1.53ZM72.8,134.83a3.49,3.49,0,0,0,1.58-.37,4.05,4.05,0,0,0,1.3-1,5,5,0,0,0,.86-1.51,5.52,5.52,0,0,0,0-3.69,5,5,0,0,0-.86-1.51,4.06,4.06,0,0,0-1.3-1,3.54,3.54,0,0,0-3.17,0,4.05,4.05,0,0,0-1.3,1,5,5,0,0,0-.86,1.51,5.52,5.52,0,0,0,0,3.69,5,5,0,0,0,.86,1.51,4,4,0,0,0,1.3,1A3.49,3.49,0,0,0,72.8,134.83Z"/><path class="cls-2" d="M85.29,137H82.5V123.17h2.22l.58,1.21A5.73,5.73,0,0,1,87,123.28a5.22,5.22,0,0,1,2.13-.43,7.3,7.3,0,0,1,1.7.23,4.69,4.69,0,0,1,1.77.86,5,5,0,0,1,1.38,1.76,6.52,6.52,0,0,1,.56,2.91V137H91.86v-8.38a3.74,3.74,0,0,0-.27-1.51,2.61,2.61,0,0,0-1.73-1.53,4.29,4.29,0,0,0-1.17-.16,3.78,3.78,0,0,0-1.05.17,3.47,3.47,0,0,0-2,1.54,2.74,2.74,0,0,0-.36,1.45Z"/><path class="cls-2" d="M100.67,137H97.88V123.17h2.22l.58,1.21a5.73,5.73,0,0,1,1.67-1.09,5.22,5.22,0,0,1,2.13-.43,7.3,7.3,0,0,1,1.7.23,4.69,4.69,0,0,1,1.77.86,5,5,0,0,1,1.38,1.76,6.52,6.52,0,0,1,.56,2.91V137h-2.65v-8.38a3.74,3.74,0,0,0-.27-1.51,2.61,2.61,0,0,0-1.73-1.53,4.29,4.29,0,0,0-1.17-.16,3.78,3.78,0,0,0-1.05.17,3.47,3.47,0,0,0-2,1.54,2.74,2.74,0,0,0-.36,1.45Z"/><path class="cls-2" d="M119.85,137.31a7.05,7.05,0,0,1-2.81-.56,7.21,7.21,0,0,1-4.39-6.67,7.55,7.55,0,0,1,2-5.13,6.71,6.71,0,0,1,2.12-1.54,6.08,6.08,0,0,1,2.59-.56,6.82,6.82,0,0,1,2.61.49,5.36,5.36,0,0,1,2.07,1.53,7.36,7.36,0,0,1,1.37,2.63,13.12,13.12,0,0,1,.49,3.82H115.62a4.69,4.69,0,0,0,.63,1.4,5,5,0,0,0,1,1.12,4.46,4.46,0,0,0,1.32.73,4.59,4.59,0,0,0,1.54.26,5.12,5.12,0,0,0,3.63-1.47l1.73,1.73A7.52,7.52,0,0,1,123,136.7,8.21,8.21,0,0,1,119.85,137.31Zm-.52-11.92a3.08,3.08,0,0,0-1.25.26,4,4,0,0,0-1.09.72,4.45,4.45,0,0,0-.86,1.09,5.1,5.1,0,0,0-.53,1.38h7.29a4.46,4.46,0,0,0-.32-1.32,3.46,3.46,0,0,0-.72-1.11,3.42,3.42,0,0,0-1.08-.75A3.5,3.5,0,0,0,119.33,125.39Z"/><path class="cls-2" d="M136.49,125.56l-.4-.12a2,2,0,0,0-.49-.06,4.34,4.34,0,0,0-1.55.27,4,4,0,0,0-1.24.73,3.47,3.47,0,0,0-.82,1.08,3,3,0,0,0-.3,1.31l0,8.18h-2.79V123.17h2.22l.58,1.53a4.25,4.25,0,0,1,1.51-1.34,4.91,4.91,0,0,1,2.35-.5,9.93,9.93,0,0,1,2.1.26l-.72,2.62Z"/><path class="cls-2" d="M94.26,36.4,86,43.91a11,11,0,0,1,.94,1.89A11.57,11.57,0,0,1,87.69,50v.12a11.56,11.56,0,0,1-.76,4.18,10.91,10.91,0,0,1-2.09,3.45,9.77,9.77,0,0,1-3.26,2.35,10.17,10.17,0,0,1-4.25.87A9.88,9.88,0,0,1,73.1,60a10.24,10.24,0,0,1-3.29-2.41,11,11,0,0,1-2.12-3.48A11.56,11.56,0,0,1,66.93,50v-.12a12,12,0,0,1,.73-4.18A10.11,10.11,0,0,1,73,39.88a10.56,10.56,0,0,1,8.46,0q.49.23.95.5L90.55,33a22.21,22.21,0,0,0-4.48-2.5,23.72,23.72,0,0,0-17.4,0,21.85,21.85,0,0,0-7,4.52A20.69,20.69,0,0,0,55.45,50v.12a20.41,20.41,0,0,0,1.65,8.18,20.74,20.74,0,0,0,4.55,6.67,21.4,21.4,0,0,0,6.9,4.5,23.72,23.72,0,0,0,17.4,0,21.85,21.85,0,0,0,7-4.52A20.69,20.69,0,0,0,99.18,50v-.12a20.41,20.41,0,0,0-1.65-8.18A20.94,20.94,0,0,0,94.26,36.4Z"/></svg>