<?xml version="1.0" encoding="UTF-8" standalone="no"?>
<svg
   xmlns:dc="http://purl.org/dc/elements/1.1/"
   xmlns:cc="http://creativecommons.org/ns#"
   xmlns:rdf="http://www.w3.org/1999/02/22-rdf-syntax-ns#"
   xmlns:svg="http://www.w3.org/2000/svg"
   xmlns="http://www.w3.org/2000/svg"
   xmlns:sodipodi="http://sodipodi.sourceforge.net/DTD/sodipodi-0.dtd"
   xmlns:inkscape="http://www.inkscape.org/namespaces/inkscape"
   data-name="Layer 1"
   height="74.187"
   width="264.47"
   version="1.1"
   y="0px"
   x="0px"
   viewBox="0 0 264.46982 74.186606"
   id="svg14"
   sodipodi:docname="anyways-logo-text-simple.svg"
   inkscape:version="0.92.4 (unknown)">
  <metadata
     id="metadata20">
    <rdf:RDF>
      <cc:Work
         rdf:about="">
        <dc:format>image/svg+xml</dc:format>
        <dc:type
           rdf:resource="http://purl.org/dc/dcmitype/StillImage" />
        <dc:title>Artboard 282</dc:title>
      </cc:Work>
    </rdf:RDF>
  </metadata>
  <defs
     id="defs18" />
  <sodipodi:namedview
     pagecolor="#ffffff"
     bordercolor="#666666"
     borderopacity="1"
     objecttolerance="10"
     gridtolerance="10"
     guidetolerance="10"
     inkscape:pageopacity="0"
     inkscape:pageshadow="2"
     inkscape:window-width="1855"
     inkscape:window-height="1176"
     id="namedview16"
     showgrid="false"
     inkscape:zoom="3.1335469"
     inkscape:cx="144.41153"
     inkscape:cy="44.371267"
     inkscape:window-x="65"
     inkscape:window-y="24"
     inkscape:window-maximized="1"
     inkscape:current-layer="svg14" />
  <title
     id="title2">Artboard 282</title>
  <text
     style="word-spacing:0px;letter-spacing:0px"
     xml:space="preserve"
     font-size="16.768px"
     line-height="100"
     y="47.93261"
     x="72.936287"
     font-family="'HK Grotesk'"
     fill="#000000"
     id="text6"><tspan
       font-family="'HK Grotesk'"
       font-weight="300"
       font-size="36.584px"
       y="47.93261"
       x="72.936287"
       stroke-width=".57163"
       id="tspan4">ANYWAYS</tspan></text>
  <g
     style="fill:none"
     id="ANYWAYS Logo"
     transform="matrix(-3.09427,0,0,-3.09427,74.389313,74.219506)">
    <rect
       y="0"
       x="0"
       height="24"
       width="24"
       id="rect6" />
    <path
       inkscape:connector-curvature="0"
       class="primary"
       id="Combined-Shape"
       d="M 3.5,4 C 3.2239,4 3,4.2239 3,4.5 v 5.293 c 0,0.1326 0.0527,0.26 0.1465,0.353 0.1952,0.196 0.5118,0.196 0.707,0 L 6.043,7.957 9.7246,11.639 A 2.1523,2.1183 0 0 1 11.504,10.59 L 7.457,6.543 9.1465,4.8535 C 9.2403,4.7597 9.293,4.6326 9.293,4.5 9.293,4.2239 9.0691,4 8.793,4 Z M 13,14.293 A 2.1523,2.1183 0 0 1 11.582,14.822 2.1523,2.1183 0 0 1 11,14.742 V 20 c 0,0.552 0.448,1 1,1 0.552,0 1,-0.448 1,-1 z"
       transform="rotate(180,12,12)"
       style="fill:#ffc000;fill-opacity:1" />
    <path
       inkscape:connector-curvature="0"
       class="primary"
       d="m 7.2448,17.145 2.0017,2.0017 c 0.093768,0.09377 0.14645,0.22094 0.14645,0.35355 0,0.27614 -0.22386,0.5 -0.5,0.5 h -5.364 c -0.27614,0 -0.5,-0.22386 -0.5,-0.5 v -5.364 c 0,-0.13261 0.052678,-0.25978 0.14645,-0.35355 0.19526,-0.19526 0.51184,-0.19526 0.70711,0 l 1.9432,1.9432 3.0284,-2.5625 1.2919,1.5268 z"
       id="path9"
       style="opacity:0.3;fill:#ffc000;fill-opacity:1" />
  </g>
  <ellipse
     class="primary"
     rx="6.6597972"
     ry="6.5545921"
     cy="38.975765"
     cx="36.391682"
     id="ellipse12"
     style="fill:none;stroke:#ffc000;stroke-width:4.40191174;stroke-opacity:1" />
</svg>
