<?xml version="1.0" encoding="UTF-8"?>
<svg width="216px" height="32px" viewBox="0 0 216 32" version="1.1" xmlns="http://www.w3.org/2000/svg" xmlns:xlink="http://www.w3.org/1999/xlink">
    <!-- Generator: Sketch 50.2 (55047) - http://www.bohemiancoding.com/sketch -->
    <title>anyways-logo</title>
    <desc>Created with Sketch.</desc>
    <defs></defs>
    <g id="Home" stroke="none" stroke-width="1" fill="none" fill-rule="evenodd">
        <g transform="translate(-720.000000, -3241.000000)" id="anyways-logo">
            <g transform="translate(720.000000, 3241.000000)">
                <path d="M68.8066,18.585 L64.9036,9.178 L60.9356,18.585 L68.8066,18.585 Z M70.3426,22.265 L59.3996,22.265 L57.4156,27 L52.9676,27 L62.7916,4.602 L67.2386,4.602 L76.9336,27 L72.3266,27 L70.3426,22.265 Z" id="Fill-1" fill="#2BC1DC"></path>
                <polygon id="Fill-2" fill="#2BC1DC" points="83.5273 4.6016 95.0783 19.9286 95.0783 4.6016 99.2383 4.6016 99.2383 26.9996 95.1743 26.9996 83.6553 11.7056 83.6553 26.9996 79.4643 26.9996 79.4643 4.6016"></polygon>
                <polygon id="Fill-3" fill="#2BC1DC" points="114.4067 19.6729 114.4067 26.9999 110.1187 26.9999 110.1187 19.8319 101.7677 4.6019 106.1197 4.6019 112.2307 15.1289 118.2467 4.6019 122.5667 4.6019"></polygon>
                <polygon id="Fill-4" fill="#2BC1DC" points="127.0469 4.6016 132.1979 22.2326 137.3179 4.6016 141.5419 4.6016 146.6929 22.2326 151.7809 4.6016 156.1969 4.6016 148.7729 26.9996 144.3249 26.9996 139.3339 10.2016 134.2779 26.9996 129.8619 26.9996 122.4389 4.6016"></polygon>
                <path d="M169.8936,18.585 L165.9906,9.178 L162.0226,18.585 L169.8936,18.585 Z M171.4296,22.265 L160.4866,22.265 L158.5026,27 L154.0546,27 L163.8786,4.602 L168.3256,4.602 L178.0206,27 L173.4136,27 L171.4296,22.265 Z" id="Fill-5" fill="#2BC1DC"></path>
                <polygon id="Fill-6" fill="#2BC1DC" points="188.7734 19.6729 188.7734 26.9999 184.4854 26.9999 184.4854 19.8319 176.1344 4.6019 180.4864 4.6019 186.5974 15.1289 192.6134 4.6019 196.9334 4.6019"></polygon>
                <path d="M206.8535,8.3135 C204.8375,8.3135 203.5255,9.0485 203.5255,10.4245 C203.5255,14.9685 215.5565,12.5045 215.5245,20.5365 C215.5245,24.7285 211.8765,27.1605 206.9495,27.1605 C203.3655,27.1605 199.8775,25.7195 197.4785,23.5765 L199.2705,19.9605 C201.5735,22.0085 204.6135,23.2555 207.0135,23.2555 C209.4135,23.2555 210.8535,22.3605 210.8535,20.7925 C210.8535,16.1215 198.8225,18.7765 198.8225,10.8095 C198.8225,6.9055 202.1815,4.4095 207.2055,4.4095 C210.1815,4.4095 213.1575,5.3695 215.3005,6.7775 L213.5725,10.4895 C211.1735,9.0485 208.5815,8.3135 206.8535,8.3135" id="Fill-7" fill="#2BC1DC"></path>
                <path d="M16,0 C7.164,0 0,7.164 0,16 C0,24.837 7.164,32 16,32 C24.836,32 32,24.837 32,16 C32,7.164 24.836,0 16,0" id="Fill-9" fill="#2BC1DC"></path>
                <polygon id="Fill-12" fill="#FEFEFE" points="16.5 16 11.5 7 6 7 14 20 14 29.5 16.5 29.5 19 29.5 19 20 27 7 22 7"></polygon>
            </g>
        </g>
    </g>
</svg>