<?xml version="1.0" encoding="UTF-8"?>
<svg width="107px" height="32px" viewBox="0 0 107 32" version="1.1" xmlns="http://www.w3.org/2000/svg" xmlns:xlink="http://www.w3.org/1999/xlink">
    <!-- Generator: Sketch 50.2 (55047) - http://www.bohemiancoding.com/sketch -->
    <title>imec-logo</title>
    <desc>Created with Sketch.</desc>
    <defs></defs>
    <g id="Home" stroke="none" stroke-width="1" fill="none" fill-rule="evenodd">
        <g transform="translate(-240.000000, -3241.000000)" fill-rule="nonzero" id="imec-logo">
            <g transform="translate(240.000000, 3241.000000)">
                <path d="M4.91621622,0.172972973 L0.925405405,0.172972973 C0.404864865,0.172972973 0.0289189189,0.547747748 0.0289189189,1.06666667 L0.0289189189,5.04504505 C0.0289189189,5.56396396 0.404864865,5.93873874 0.925405405,5.93873874 L4.91621622,5.93873874 C5.43675676,5.93873874 5.8127027,5.56396396 5.8127027,5.04504505 L5.8127027,1.06666667 C5.8127027,0.547747748 5.46567568,0.172972973 4.91621622,0.172972973 Z" id="Shape" fill="#3F98BD"></path>
                <g id="Group" transform="translate(16.772973, 8.648649)" fill="#3C3C3B">
                    <path d="M60.0067568,0.230630631 C53.1240541,0.230630631 49.942973,3.89189189 49.942973,11.8198198 C49.942973,19.9783784 53.3554054,23.2936937 61.1924324,23.2936937 C63.4481081,23.2936937 65.4724324,23.0054054 67.3810811,22.6018018 C67.757027,22.5153153 67.9883784,22.1981982 67.9883784,21.7657658 L67.9883784,18.7387387 C67.9883784,18.190991 67.6702703,18.018018 67.1497297,18.1045045 C65.0386486,18.4792793 63.6216216,18.7099099 61.5394595,18.7099099 C57.4908108,18.7099099 55.6689189,17.7009009 55.3797297,13.7225225 L68.6535135,13.7225225 C69.2897297,13.7225225 69.5789189,13.4342342 69.5789189,12.8 L69.5789189,12.7135135 C69.6078378,3.89189189 66.8027027,0.230630631 60.0067568,0.230630631 Z M55.4375676,10.0324324 C55.6110811,6.08288288 57.057027,4.75675676 60.0645946,4.75675676 C62.9564865,4.75675676 64.2289189,6.08288288 64.4602703,10.0324324 L55.4375676,10.0324324 Z" id="Shape"></path>
                    <path d="M9.86135135,18.5369369 C9.51432432,18.5945946 8.90702703,18.6810811 8.18405405,18.6810811 C6.39108108,18.6810811 5.72594595,18.1045045 5.72594595,14.990991 L5.72594595,1.00900901 C5.72594595,0.547747748 5.43675676,0.259459459 4.97405405,0.259459459 L0.983243243,0.259459459 C0.520540541,0.259459459 0.231351351,0.547747748 0.231351351,1.00900901 L0.231351351,15.6828829 C0.231351351,21.4486486 2.28459459,23.3225225 7.0272973,23.3225225 C8.35756757,23.3225225 9.48540541,23.1783784 9.97702703,23.0918919 C10.5554054,23.0054054 10.7,22.6306306 10.7,22.227027 L10.7,19.1423423 C10.6710811,18.6234234 10.3818919,18.4216216 9.86135135,18.5369369 Z" id="Shape"></path>
                    <path d="M38.7513514,0.230630631 C37.4210811,0.230630631 36.2932432,0.374774775 35.8016216,0.461261261 C35.2232432,0.547747748 35.0786486,0.922522523 35.0786486,1.32612613 L35.0786486,4.41081081 C35.0786486,4.92972973 35.3678378,5.13153153 35.8883784,5.01621622 C36.2354054,4.95855856 36.8427027,4.87207207 37.5656757,4.87207207 C39.3586486,4.87207207 40.0237838,5.44864865 40.0237838,8.56216216 L40.0237838,22.5441441 C40.0237838,23.0054054 40.312973,23.2936937 40.7756757,23.2936937 L44.7664865,23.2936937 C45.2291892,23.2936937 45.5183784,23.0054054 45.5183784,22.5441441 L45.5183784,7.87027027 C45.5472973,2.07567568 43.4940541,0.230630631 38.7513514,0.230630631 Z" id="Shape"></path>
                    <path d="M26.2294595,0.230630631 C24.8991892,0.230630631 23.7713514,0.374774775 23.2797297,0.461261261 C22.7013514,0.547747748 22.5567568,0.922522523 22.5567568,1.32612613 L22.5567568,4.41081081 C22.5567568,4.92972973 22.8459459,5.13153153 23.3664865,5.01621622 C23.7135135,4.95855856 24.3208108,4.87207207 25.0437838,4.87207207 C26.8367568,4.87207207 27.5018919,5.44864865 27.5018919,8.56216216 L27.5018919,22.5441441 C27.5018919,23.0054054 27.7910811,23.2936937 28.2537838,23.2936937 L32.2445946,23.2936937 C32.7072973,23.2936937 32.9964865,23.0054054 32.9964865,22.5441441 L32.9964865,7.87027027 C33.0254054,2.07567568 30.9721622,0.230630631 26.2294595,0.230630631 Z" id="Shape"></path>
                    <path d="M13.8232432,0.230630631 C12.492973,0.230630631 11.3651351,0.374774775 10.8735135,0.461261261 C10.2951351,0.547747748 10.1505405,0.922522523 10.1505405,1.32612613 L10.1505405,4.41081081 C10.1505405,4.92972973 10.4397297,5.13153153 10.9602703,5.01621622 C11.3072973,4.95855856 11.9145946,4.87207207 12.6375676,4.87207207 C14.4305405,4.87207207 15.0956757,5.44864865 15.0956757,8.56216216 L15.0956757,22.5441441 C15.0956757,23.0054054 15.3848649,23.2936937 15.8475676,23.2936937 L19.8383784,23.2936937 C20.3010811,23.2936937 20.5902703,23.0054054 20.5902703,22.5441441 L20.5902703,7.87027027 C20.6191892,2.07567568 18.5659459,0.230630631 13.8232432,0.230630631 Z" id="Shape"></path>
                    <path d="M89.0124324,18.4216216 C87.5086486,18.5945946 86.5254054,18.7099099 85.3975676,18.7099099 C80.8862162,18.7099099 79.527027,17.4414414 79.527027,11.790991 C79.527027,6.16936937 80.9440541,4.87207207 85.3686486,4.87207207 C86.5254054,4.87207207 87.5664865,4.95855856 89.0991892,5.13153153 C89.5908108,5.18918919 89.9378378,5.04504505 89.9378378,4.43963964 L89.9378378,1.55675676 C89.9378378,1.15315315 89.7064865,0.836036036 89.3016216,0.720720721 C87.8845946,0.403603604 86.2362162,0.230630631 84.4721622,0.230630631 C77.0689189,0.230630631 74.0902703,3.57477477 74.0902703,11.7621622 C74.0902703,19.9495495 77.0689189,23.2936937 84.4721622,23.2936937 C86.2651351,23.2936937 87.8556757,23.1207207 89.3016216,22.8036036 C89.7064865,22.7171171 89.9378378,22.4 89.9378378,21.9675676 L89.9378378,19.0846847 C89.88,18.5081081 89.5040541,18.363964 89.0124324,18.4216216 Z" id="Shape"></path>
                </g>
            </g>
        </g>
    </g>
</svg>