<?xml version="1.0" encoding="UTF-8"?>
<svg width="12px" height="12px" viewBox="0 0 12 12" version="1.1" xmlns="http://www.w3.org/2000/svg" xmlns:xlink="http://www.w3.org/1999/xlink">
    <!-- Generator: Sketch 50.2 (55047) - http://www.bohemiancoding.com/sketch -->
    <title>menu-icon-close</title>
    <desc>Created with Sketch.</desc>
    <defs></defs>
    <g id="Home-–-Mobile" stroke="none" stroke-width="1" fill="none" fill-rule="evenodd">
        <g id="Home-Menu-Open-Copy-4" transform="translate(-318.000000, -49.000000)" fill="#000000">
            <g id="Group-2" transform="translate(305.000000, 36.000000)">
                <path d="M18,18 L18,12 C18,11.4477153 18.4477153,11 19,11 C19.5522847,11 20,11.4477153 20,12 L20,18 L26,18 C26.5522847,18 27,18.4477153 27,19 C27,19.5522847 26.5522847,20 26,20 L20,20 L20,26 C20,26.5522847 19.5522847,27 19,27 C18.4477153,27 18,26.5522847 18,26 L18,20 L12,20 C11.4477153,20 11,19.5522847 11,19 C11,18.4477153 11.4477153,18 12,18 L18,18 Z" id="menu-icon-close" transform="translate(19.000000, 19.000000) rotate(45.000000) translate(-19.000000, -19.000000) "></path>
            </g>
        </g>
    </g>
</svg>