<?xml version="1.0" encoding="UTF-8"?>
<svg width="172px" height="24px" viewBox="0 0 172 24" version="1.1" xmlns="http://www.w3.org/2000/svg" xmlns:xlink="http://www.w3.org/1999/xlink">
    <!-- Generator: Sketch 50.2 (55047) - http://www.bohemiancoding.com/sketch -->
    <title>nextmoov-logo</title>
    <desc>Created with Sketch.</desc>
    <defs></defs>
    <g id="Home" stroke="none" stroke-width="1" fill="none" fill-rule="evenodd">
        <g transform="translate(-720.000000, -3530.000000)" fill="#000000" id="nextmoov-logo">
            <path d="M732.195407,3553.63691 L736.187951,3553.63691 L736.187951,3542.52648 C736.187951,3540.38427 735.643513,3538.60514 734.482046,3537.26172 C733.320578,3535.882 731.650969,3535.22844 729.436922,3535.22844 C728.892484,3535.22844 728.31175,3535.30106 727.767313,3535.40998 C727.186579,3535.55522 726.569549,3535.84569 725.843632,3536.28139 C725.117715,3536.7171 724.46439,3537.29803 723.919952,3538.02421 L723.919952,3535.59153 L720,3535.59153 L720,3553.63691 L724.02884,3553.63691 L724.02884,3543.57943 C724.02884,3542.1997 724.391798,3541.11044 725.154011,3540.27534 C725.916224,3539.44024 726.932508,3539.04085 728.202863,3539.04085 C730.85246,3539.04085 732.195407,3540.81997 732.195407,3543.54312 L732.195407,3553.63691 Z M756.943129,3545.79425 L743.223297,3545.79425 C743.295889,3548.48109 745.90919,3550.55068 748.522491,3550.51437 C750.845426,3550.51437 752.623923,3549.53404 753.313544,3547.46445 L756.689058,3548.5174 C756.035733,3550.73222 754.22094,3552.51135 752.043189,3553.34644 C750.918018,3553.74584 749.792846,3553.96369 748.558787,3553.96369 C743.36848,3554.07262 739.012978,3549.82451 739.121865,3544.59607 C739.121865,3542.88956 739.52112,3541.32829 740.283333,3539.91225 C741.081842,3538.45991 742.134421,3537.33434 743.54996,3536.49924 C744.929202,3535.66415 746.489924,3535.22844 748.195829,3535.22844 C750.954314,3535.22844 753.095769,3536.06354 754.656491,3537.80635 C756.217212,3539.51286 757.015721,3541.76399 757.015721,3544.55976 C757.015721,3544.99546 756.979425,3545.43116 756.943129,3545.79425 Z M748.232125,3538.67776 C746.998066,3538.67776 745.90919,3539.04085 745.03809,3539.80333 C744.166989,3540.5295 743.622551,3541.50983 743.441072,3542.74433 L752.91429,3542.74433 C752.841698,3541.50983 752.369852,3540.5295 751.498751,3539.76702 C750.591355,3539.04085 749.50248,3538.67776 748.232125,3538.67776 Z M765.684381,3547.35552 L761.147399,3553.63691 L756.537826,3553.63691 L763.397742,3544.52345 L756.791897,3535.59153 L761.40147,3535.59153 L765.720677,3541.58245 L770.076179,3535.59153 L774.613161,3535.59153 L768.007315,3544.45083 L774.830936,3553.63691 L770.221363,3553.63691 L765.684381,3547.35552 Z M787.165477,3535.59153 L782.592199,3535.59153 L782.592199,3530 L778.563359,3530 L778.563359,3535.59153 L775.078958,3535.59153 L775.078958,3539.22239 L778.563359,3539.22239 L778.563359,3548.04539 C778.563359,3550.15129 779.035206,3551.63994 779.942602,3552.51135 C780.849998,3553.38275 782.265537,3553.81846 784.116625,3553.81846 C785.205501,3553.81846 786.185489,3553.67322 786.983997,3553.45537 L786.983997,3550.00605 C786.294376,3550.11498 785.749938,3550.15129 785.350684,3550.15129 C783.390708,3550.15129 782.592199,3549.42511 782.592199,3547.82753 L782.592199,3539.22239 L787.165477,3539.22239 L787.165477,3535.59153 Z M802.149615,3553.63691 L806.142159,3553.63691 L806.142159,3543.54312 C806.142159,3542.1997 806.505117,3541.07413 807.231034,3540.23903 C807.920656,3539.40393 808.900644,3539.00454 810.134703,3539.00454 C812.7843,3539.00454 813.982063,3540.74735 813.982063,3543.4705 L813.982063,3553.63691 L818.010903,3553.63691 L818.010903,3542.49017 C818.010903,3540.38427 817.502761,3538.64145 816.450181,3537.29803 C815.397601,3535.99092 813.6554,3535.19213 811.441353,3535.19213 C810.098407,3535.19213 808.973235,3535.40998 807.993247,3535.882 C807.013259,3536.39032 806.069567,3537.11649 805.162171,3538.13313 C804.036999,3536.17247 802.185911,3535.19213 799.608905,3535.19213 C799.064467,3535.19213 798.483734,3535.26475 797.939296,3535.37368 C797.394858,3535.51891 796.777829,3535.84569 796.088207,3536.28139 C795.36229,3536.7171 794.745261,3537.29803 794.200823,3538.02421 L794.200823,3535.59153 L790.280871,3535.59153 L790.280871,3553.63691 L794.309711,3553.63691 L794.309711,3543.57943 C794.309711,3542.1997 794.672669,3541.11044 795.398586,3540.23903 C796.088207,3539.40393 797.0319,3539.00454 798.302254,3539.00454 C800.915556,3539.00454 802.149615,3540.78366 802.149615,3543.50681 L802.149615,3553.63691 Z M839.391097,3542.50227 L854.994441,3542.50227 C855.954302,3538.34209 859.680493,3535.24054 864.130834,3535.24054 C869.309293,3535.24054 873.507263,3539.43999 873.507263,3544.62027 C873.507263,3549.80055 869.309293,3554 864.130834,3554 C859.55195,3554 855.739653,3550.7167 854.91824,3546.37519 L839.467298,3546.37519 C838.645885,3550.7167 834.833587,3554 830.254704,3554 C825.076245,3554 820.878275,3549.80055 820.878275,3544.62027 C820.878275,3539.43999 825.076245,3535.24054 830.254704,3535.24054 C834.705045,3535.24054 838.431236,3538.34209 839.391097,3542.50227 Z M884.450462,3553.63691 L880.421623,3553.63691 L872.799494,3535.59153 L877.154996,3535.59153 L882.454191,3548.9531 L887.753385,3535.59153 L892,3535.59153 L884.450462,3553.63691 Z M864.130834,3550.12708 C867.17109,3550.12708 869.635705,3547.6616 869.635705,3544.62027 C869.635705,3541.57895 867.17109,3539.11346 864.130834,3539.11346 C861.090578,3539.11346 858.625963,3541.57895 858.625963,3544.62027 C858.625963,3547.6616 861.090578,3550.12708 864.130834,3550.12708 Z"></path>
        </g>
    </g>
</svg>