<?xml version="1.0" encoding="UTF-8" standalone="no"?>
<svg
   xmlns:dc="http://purl.org/dc/elements/1.1/"
   xmlns:cc="http://creativecommons.org/ns#"
   xmlns:rdf="http://www.w3.org/1999/02/22-rdf-syntax-ns#"
   xmlns:svg="http://www.w3.org/2000/svg"
   xmlns="http://www.w3.org/2000/svg"
   xmlns:sodipodi="http://sodipodi.sourceforge.net/DTD/sodipodi-0.dtd"
   xmlns:inkscape="http://www.inkscape.org/namespaces/inkscape"
   width="172px"
   height="24px"
   viewBox="0 0 172 24"
   version="1.1"
   id="svg2"
   inkscape:version="0.91 r13725"
   sodipodi:docname="nextmoov-logo-white.svg">
  <metadata
     id="metadata16">
    <rdf:RDF>
      <cc:Work
         rdf:about="">
        <dc:format>image/svg+xml</dc:format>
        <dc:type
           rdf:resource="http://purl.org/dc/dcmitype/StillImage" />
        <dc:title>nextmoov-logo</dc:title>
      </cc:Work>
    </rdf:RDF>
  </metadata>
  <sodipodi:namedview
     pagecolor="#ffffff"
     bordercolor="#666666"
     borderopacity="1"
     objecttolerance="10"
     gridtolerance="10"
     guidetolerance="10"
     inkscape:pageopacity="0"
     inkscape:pageshadow="2"
     inkscape:window-width="1920"
     inkscape:window-height="1021"
     id="namedview14"
     showgrid="false"
     inkscape:zoom="1.6104651"
     inkscape:cx="86"
     inkscape:cy="12"
     inkscape:window-x="0"
     inkscape:window-y="0"
     inkscape:window-maximized="1"
     inkscape:current-layer="svg2" />
  <!-- Generator: Sketch 50.2 (55047) - http://www.bohemiancoding.com/sketch -->
  <title
     id="title4">nextmoov-logo</title>
  <desc
     id="desc6">Created with Sketch.</desc>
  <defs
     id="defs8" />
  <path
     style="fill:#ffffff;fill-rule:evenodd;stroke:none;stroke-width:1;fill-opacity:1"
     d="m 12.19541,23.6369 3.99254,0 0,-11.1104 c 0,-2.1422 -0.54444,-3.9214 -1.7059,-5.2648 C 13.32058,5.882 11.65097,5.2284 9.43692,5.2284 8.89248,5.2284 8.31175,5.3014 7.76731,5.41 7.18658,5.5552 6.56955,5.8457 5.84363,6.2814 5.11771,6.7171 4.46439,7.298 3.91995,8.0242 l 0,-2.4327 -3.91995,0 0,18.0454 4.02884,0 0,-10.0575 c 0,-1.3797 0.36296,-2.469 1.12517,-3.3041 0.76221,-0.8351 1.7785,-1.2345 3.04885,-1.2345 2.6496,0 3.99255,1.7792 3.99255,4.5023 l 0,10.0938 z m 24.74772,-7.8426 -13.71983,0 c 0.0726,2.6868 2.68589,4.7564 5.29919,4.7201 2.32294,0 4.10143,-0.9804 4.79105,-3.0499 l 3.37552,1.0529 c -0.65333,2.2148 -2.46812,3.994 -4.64587,4.829 -1.12517,0.3994 -2.25034,0.6173 -3.4844,0.6173 -5.19031,0.1089 -9.54581,-4.1392 -9.43693,-9.3676 0,-1.7065 0.39926,-3.2678 1.16147,-4.6839 0.79851,-1.4523 1.85109,-2.5779 3.26663,-3.413 1.37924,-0.835 2.93996,-1.2708 4.64587,-1.2708 2.75848,0 4.89994,0.8351 6.46066,2.5779 1.56072,1.7066 2.35923,3.9577 2.35923,6.7535 0,0.4357 -0.0363,0.8714 -0.0726,1.2345 z M 28.23212,8.6778 c -1.23405,0 -2.32293,0.363 -3.19403,1.1255 -0.8711,0.7262 -1.41554,1.7065 -1.59702,2.941 l 9.47322,0 C 32.84169,11.5098 32.36985,10.5295 31.49875,9.767 30.59136,9.0408 29.50248,8.6778 28.23212,8.6778 Z m 17.45226,8.6777 -4.53698,6.2814 -4.60957,0 6.85991,-9.1134 -6.60584,-8.932 4.60957,0 4.31921,5.9909 4.3555,-5.9909 4.53698,0 -6.60585,8.8593 6.82363,9.1861 -4.60958,0 -4.53698,-6.2814 z m 21.4811,-11.764 -4.57328,0 0,-5.5915 -4.02884,0 0,5.5915 -3.4844,0 0,3.6309 3.4844,0 0,8.823 c 0,2.1059 0.47185,3.5945 1.37924,4.466 0.9074,0.8714 2.32294,1.3071 4.17402,1.3071 1.08888,0 2.06887,-0.1453 2.86738,-0.3631 l 0,-3.4493 c -0.68962,0.1089 -1.23406,0.1452 -1.63332,0.1452 -1.95997,0 -2.75848,-0.7262 -2.75848,-2.3238 l 0,-8.6051 4.57328,0 0,-3.6309 z m 14.98414,18.0454 3.99254,0 0,-10.0938 c 0,-1.3434 0.36296,-2.469 1.08887,-3.3041 0.68963,-0.8351 1.66961,-1.2345 2.90367,-1.2345 2.6496,0 3.84736,1.7429 3.84736,4.466 l 0,10.1664 4.02884,0 0,-11.1467 c 0,-2.1059 -0.50814,-3.8487 -1.56072,-5.1922 C 95.3976,5.9909 93.6554,5.1921 91.44135,5.1921 c -1.34294,0 -2.46811,0.2179 -3.4481,0.6899 -0.97999,0.5083 -1.92368,1.2345 -2.83108,2.2511 -1.12517,-1.9606 -2.97626,-2.941 -5.55326,-2.941 -0.54444,0 -1.12518,0.073 -1.66961,0.1816 -0.54444,0.1452 -1.16147,0.472 -1.85109,0.9077 -0.72592,0.4357 -1.34295,1.0166 -1.88739,1.7428 l 0,-2.4327 -3.91995,0 0,18.0454 4.02884,0 0,-10.0575 c 0,-1.3797 0.36296,-2.469 1.08888,-3.3404 0.68962,-0.8351 1.63331,-1.2345 2.90366,-1.2345 2.61331,0 3.84737,1.7792 3.84737,4.5023 l 0,10.1301 z m 37.24148,-11.1346 15.60334,0 c 0.95986,-4.1602 4.68605,-7.2618 9.13639,-7.2618 5.17846,0 9.37643,4.1995 9.37643,9.3798 0,5.1803 -4.19797,9.3797 -9.37643,9.3797 -4.57888,0 -8.39118,-3.2833 -9.21259,-7.6248 l -15.45094,0 C 118.64589,20.7167 114.83359,24 110.2547,24 c -5.17846,0 -9.37642,-4.1994 -9.37642,-9.3797 0,-5.1803 4.19796,-9.3798 9.37642,-9.3798 4.45035,0 8.17654,3.1016 9.1364,7.2618 z m 45.05936,11.1346 -4.02884,0 -7.62213,-18.0454 4.35551,0 5.29919,13.3616 5.29919,-13.3616 4.24662,0 -7.54954,18.0454 z m -20.31963,-3.5098 c 3.04026,0 5.50488,-2.4655 5.50488,-5.5068 0,-3.0413 -2.46462,-5.5068 -5.50488,-5.5068 -3.04025,0 -5.50487,2.4655 -5.50487,5.5068 0,3.0413 2.46462,5.5068 5.50487,5.5068 z"
     id="path12"
     inkscape:connector-curvature="0" />
</svg>
