<?xml version="1.0" encoding="UTF-8"?>
<svg width="148px" height="64px" viewBox="0 0 148 64" version="1.1" xmlns="http://www.w3.org/2000/svg" xmlns:xlink="http://www.w3.org/1999/xlink">
    <!-- Generator: Sketch 50.2 (55047) - http://www.bohemiancoding.com/sketch -->
    <title>okfn-logo</title>
    <desc>Created with Sketch.</desc>
    <defs></defs>
    <g id="Home" stroke="none" stroke-width="1" fill="none" fill-rule="evenodd">
        <g transform="translate(-240.000000, -3490.000000)" fill="#DD4442" fill-rule="nonzero" id="okfn-logo">
            <g transform="translate(240.000000, 3490.000000)">
                <path d="M46.08239,15.644469 L45.333658,15.0781057 C45.466044,14.9166345 55.966052,0.921011494 55.966052,0.921011494 L56.723664,1.48377011 C56.617622,1.6247908 46.124348,15.5885609 46.08239,15.644469" id="Fill-1"></path>
                <polyline id="Fill-2" points="44.5924 14.586777 43.787058 14.0939034 47.056008 8.81596322 47.861276 9.30898391 44.5924 14.586777"></polyline>
                <polyline id="Fill-3" points="43.013536 13.665692 42.166828 13.2467494 45.72682 6.14105747 46.57338 6.56014713 43.013536 13.665692"></polyline>
                <polyline id="Fill-4" points="41.35786 12.8890851 40.47689 12.5472368 43.761676 4.18611494 44.642498 4.52803678 41.35786 12.8890851"></polyline>
                <polyline id="Fill-5" points="39.638544 12.2632092 38.730342 12.001177 42.231282 0.0149333333 43.139484 0.276891954 39.638544 12.2632092"></polyline>
                <polyline id="Fill-6" points="37.86987 11.7931402 36.941688 11.6129839 38.6095 3.12084598 39.537608 3.3010023 37.86987 11.7931402"></polyline>
                <polyline id="Fill-7" points="36.066342 11.4823356 35.12558 11.3854529 35.946536 3.49189885 36.88715 3.58878161 36.066342 11.4823356"></polyline>
                <polyline id="Fill-8" points="34.241502 11.3334437 33.295856 11.3208644 33.374518 5.43573333 34.320164 5.44823908 34.241502 11.3334437"></polyline>
                <polyline id="Fill-9" points="31.467908 11.4198805 30.78437 2.55389425 31.727204 2.48202299 32.410816 11.3479356 31.467908 11.4198805"></polyline>
                <polyline id="Fill-10" points="29.65624 11.6808092 28.51331 4.90938851 29.445858 4.75372874 30.588862 11.5252966 29.65624 11.6808092"></polyline>
                <polyline id="Fill-11" points="27.874764 12.1022529 26.324834 6.21491494 27.239622 5.9767908 28.789626 11.8642759 27.874764 12.1022529"></polyline>
                <polyline id="Fill-12" points="26.139242 12.6810483 23.312146 4.87871264 24.201922 4.56011034 27.028944 12.3623724 26.139242 12.6810483"></polyline>
                <polyline id="Fill-13" points="24.463142 13.4119724 22.731468 9.7129931 23.588832 9.31626667 25.320432 13.0153195 24.463142 13.4119724"></polyline>
                <polyline id="Fill-14" points="22.85897 14.2892874 20.229602 9.77912644 21.04782 9.30773333 23.677114 13.8181149 22.85897 14.2892874"></polyline>
                <polyline id="Fill-15" points="21.340638 15.3065931 20.412234 14.0000368 21.18472 13.4575816 22.11305 14.7640644 21.340638 15.3065931"></polyline>
                <polyline id="Fill-16" points="19.919838 16.4544 14.684708 10.3352644 15.405098 9.72630805 20.640228 15.8455172 19.919838 16.4544"></polyline>
                <polyline id="Fill-17" points="18.608632 17.7243954 13.912074 13.140377 14.57467 12.4696276 19.271154 17.0537195 18.608632 17.7243954"></polyline>
                <polyline id="Fill-18" points="17.417306 19.1064276 10.269424 13.2836046 10.86875 12.5564322 18.016632 18.3792552 17.417306 19.1064276"></polyline>
                <polyline id="Fill-19" points="16.354962 20.5884322 9.762746 16.1366805 10.294214 15.3588966 16.886282 19.8107954 16.354962 20.5884322"></polyline>
                <polyline id="Fill-20" points="15.43085 22.1595954 3.008618 15.3010759 3.467788 14.479154 15.89002 21.3377471 15.43085 22.1595954"></polyline>
                <polyline id="Fill-21" points="14.651926 23.8065287 10.075322 21.7900874 10.458568 20.9305747 15.035024 22.9470161 14.651926 23.8065287"></polyline>
                <polyline id="Fill-22" points="14.024776 25.5165793 2.16376 21.5113563 2.467826 20.6212414 14.329064 24.6263908 14.024776 25.5165793"></polyline>
                <polyline id="Fill-23" points="0 24.0108138 13.55458 27.2749609 13.777024 26.3613057 0.222592 23.0971586 0 24.0108138"></polyline>
                <polyline id="Fill-24" points="13.244594 29.0689471 7.723972 28.2510713 7.863388 27.3213793 13.383862 28.1392552 13.244594 29.0689471"></polyline>
                <polyline id="Fill-25" points="13.097704 30.882869 2.985012 30.2976 3.039994 29.3590069 13.152686 29.9443494 13.097704 30.882869"></polyline>
                <polyline id="Fill-26" points="5.397264 32.9452874 5.367442 32.0055908 13.084976 31.7631264 13.114798 32.7027494 5.397264 32.9452874"></polyline>
                <polyline id="Fill-27" points="3.49502 35.7019218 3.380542 34.7687724 13.181694 33.5803586 13.296246 34.5136552 3.49502 35.7019218"></polyline>
                <polyline id="Fill-28" points="7.796122 37.5462253 7.597876 36.6269057 13.441878 35.3819218 13.639976 36.3010207 7.796122 37.5462253"></polyline>
                <polyline id="Fill-29" points="11.95063 38.7272092 11.670318 37.829223 13.863456 37.1530299 14.14362 38.0510161 11.95063 38.7272092"></polyline>
                <polyline id="Fill-30" points="8.154578 42.4701793 7.79442 41.6009563 14.442876 38.8792644 14.802886 39.7486345 8.154578 42.4701793"></polyline>
                <polyline id="Fill-31" points="8.245376 45.1975356 7.80811 44.3639172 15.175476 40.5472368 15.612594 41.380708 8.245376 45.1975356"></polyline>
                <polyline id="Fill-32" points="8.297028 48.2053885 7.786724 47.414069 16.056076 42.1429701 16.566528 42.9344368 8.297028 48.2053885"></polyline>
                <polyline id="Fill-33" points="10.580298 49.8549701 10.00036 49.1123494 17.07661 43.6538851 17.656326 44.3965793 10.580298 49.8549701"></polyline>
                <polyline id="Fill-34" points="12.680196 51.4879264 12.035804 50.7999632 18.229456 45.0676966 18.873848 45.7556598 12.680196 51.4879264"></polyline>
                <polyline id="Fill-35" points="14.377756 53.460892 13.673868 52.8328092 19.505068 46.3732966 20.208882 47.0013057 14.377756 53.460892"></polyline>
                <polyline id="Fill-36" points="16.897308 54.4479632 16.139844 53.8853517 20.893234 47.5597977 21.650698 48.1225563 16.897308 54.4479632"></polyline>
                <polyline id="Fill-37" points="21.075496 52.5222253 20.270228 52.0294989 22.382706 48.6178575 23.187974 49.1105839 21.075496 52.5222253"></polyline>
                <polyline id="Fill-38" points="20.100694 59.3544828 19.254134 58.9355402 23.961792 49.5390897 24.808278 49.9581793 20.100694 59.3544828"></polyline>
                <polyline id="Fill-39" points="23.644184 57.9230161 22.763362 57.5811678 25.617394 50.3155494 26.498142 50.6574713 23.644184 57.9230161"></polyline>
                <polyline id="Fill-40" points="26.846682 55.9898483 25.938628 55.727669 27.336562 50.9417931 28.244616 51.2039724 26.846682 55.9898483"></polyline>
                <polyline id="Fill-41" points="28.653244 58.6178943 27.72521 58.4378115 29.104792 51.4120092 30.0329 51.5921655 28.653244 58.6178943"></polyline>
                <polyline id="Fill-42" points="31.096206 59.0608184 30.155518 58.9638621 30.908542 51.7225931 31.84923 51.8194023 31.096206 59.0608184"></polyline>
                <polyline id="Fill-43" points="33.612576 56.8626759 32.66693 56.850023 32.733382 51.8712644 33.67925 51.8837701 33.612576 56.8626759"></polyline>
                <polyline id="Fill-44" points="35.166798 59.6733057 34.56429 51.8569195 35.507124 51.7850483 36.109854 59.6012874 35.166798 59.6733057"></polyline>
                <polyline id="Fill-45" points="37.988862 61.1737011 36.386244 51.6797057 37.318866 51.5241195 38.921484 61.0180414 37.988862 61.1737011"></polyline>
                <polyline id="Fill-46" points="41.514592 63.9852874 38.185036 51.3402115 39.099824 51.102308 42.429306 63.7472368 41.514592 63.9852874"></polyline>
                <polyline id="Fill-47" points="41.928918 56.3138207 39.945866 50.8424828 40.83542 50.5238805 42.818546 55.9951448 41.928918 56.3138207"></polyline>
                <polyline id="Fill-48" points="45.002878 57.3418667 41.654896 50.1896092 42.512408 49.7928828 45.860316 56.9452874 45.002878 57.3418667"></polyline>
                <polyline id="Fill-49" points="51.106028 62.7781149 43.297844 49.3868138 44.115988 48.9154943 51.924172 62.3067954 51.106028 62.7781149"></polyline>
                <polyline id="Fill-50" points="49.906636 55.5391264 44.862204 48.4412322 45.634468 47.8988506 50.6789 54.9966713 49.906636 55.5391264"></polyline>
                <polyline id="Fill-51" points="46.830604 47.9460782 46.33473 47.3597793 47.05512 46.750823 47.55092 47.3371218 46.830604 47.9460782"></polyline>
                <polyline id="Fill-52" points="53.625802 51.9313655 47.7041 46.1516506 48.366548 45.4809011 54.288398 51.2608368 53.625802 51.9313655"></polyline>
                <polyline id="Fill-53" points="53.951476 48.8932782 48.958548 44.8263356 49.557874 44.0990897 54.550802 48.1661793 53.951476 48.8932782"></polyline>
                <polyline id="Fill-54" points="56.545916 47.7545931 50.088676 43.3942805 50.619996 42.6166437 57.07731 46.9769563 56.545916 47.7545931"></polyline>
                <polyline id="Fill-55" points="56.185536 44.6831816 51.08516 41.867623 51.544404 41.045554 56.644632 43.8613333 56.185536 44.6831816"></polyline>
                <polyline id="Fill-56" points="62.001344 44.6905379 51.940008 40.2579862 52.323106 39.3985471 62.384294 43.8310253 62.001344 44.6905379"></polyline>
                <polyline id="Fill-57" points="55.109354 39.4103172 52.64619 38.5789793 52.950034 37.6887908 55.413494 38.5202023 55.109354 39.4103172"></polyline>
                <path d="M62.769834,39.1484322 C62.769834,39.1484322 53.471142,36.906446 53.197342,36.8383264 L53.421414,35.9299678 C53.473732,35.9426943 62.992574,38.2347034 62.992574,38.2347034 L62.769834,39.1484322" id="Fill-58"></path>
                <polyline id="Fill-59" points="61.309148 36.2089195 53.59154 35.0659678 53.730882 34.1362759 61.448342 35.279154 61.309148 36.2089195"></polyline>
                <polyline id="Fill-60" points="60.474058 33.6456092 53.822864 33.2605057 53.877698 32.3219126 60.52904 32.7069425 60.474058 33.6456092"></polyline>
                <polyline id="Fill-61" points="53.890648 31.4418023 53.860752 30.5022529 58.813128 30.346446 58.843246 31.2862161 53.890648 31.4418023"></polyline>
                <polyline id="Fill-62" points="53.794004 29.6242759 53.6796 28.6910529 57.946588 28.1735356 58.061214 29.1066115 53.794004 29.6242759"></polyline>
                <polyline id="Fill-63" points="53.533894 27.8227862 53.335722 26.9036138 59.45937 25.5983816 59.657616 26.5177011 53.533894 27.8227862"></polyline>
                <polyline id="Fill-64" points="53.112316 26.0518253 52.83193 25.1541333 55.659692 24.2813793 55.93993 25.179292 53.112316 26.0518253"></polyline>
                <polyline id="Fill-65" points="52.533044 24.3251494 52.173034 23.4558529 56.123228 21.8386391 56.483312 22.7077885 52.533044 24.3251494"></polyline>
                <polyline id="Fill-66" points="51.800148 22.6573977 51.36303 21.8237057 59.980552 17.359154 60.417596 18.1926989 51.800148 22.6573977"></polyline>
                <polyline id="Fill-67" points="50.91977 21.0616644 50.409392 20.2704184 60.866702 13.6041195 61.377154 14.3953655 50.91977 21.0616644"></polyline>
                <polyline id="Fill-68" points="49.899088 19.5507494 49.319298 18.8081287 51.554468 17.083954 52.134258 17.8267218 49.899088 19.5507494"></polyline>
                <path d="M48.747796,18.1353195 L48.110434,17.4405885 C48.261986,17.3035402 49.68212,15.9861701 49.68212,15.9861701 L50.326364,16.674354 C50.326364,16.674354 48.781096,18.1042759 48.747796,18.1353195" id="Fill-69"></path>
                <polyline id="Fill-70" points="47.47063 16.8313379 46.766742 16.2034023 57.467734 4.34810115 58.171622 4.97611034 47.47063 16.8313379"></polyline>
                <path d="M30.287312,34.4351632 C30.233662,34.6306943 30.144344,34.7905471 30.001302,34.9504736 C29.858334,35.1104 29.679624,35.2347954 29.429356,35.3236598 C29.179088,35.4125241 28.85741,35.4657839 28.482008,35.4657839 L26.444418,35.4657839 L26.444418,32.374069 L28.464174,32.374069 C28.839502,32.374069 29.14342,32.4096 29.375706,32.4806621 C29.60814,32.5517241 29.804758,32.6405885 29.947726,32.7649839 C30.090694,32.8893793 30.19792,33.0493057 30.269404,33.2269609 C30.323054,33.4224184 30.358796,33.6178759 30.358796,33.8488644 C30.358796,34.0443218 30.340962,34.2397793 30.287312,34.4351632 Z M26.444418,27.3988414 L28.142422,27.3988414 C28.464174,27.3988414 28.750184,27.434446 28.982544,27.469977 C29.21483,27.505508 29.429356,27.5943724 29.572324,27.7186943 C29.715366,27.8430897 29.840426,28.0030161 29.911984,28.1984736 C29.983468,28.4117333 30.01921,28.6426483 30.01921,28.9447724 C30.01921,29.246823 29.96556,29.4955402 29.876168,29.6909977 C29.78685,29.8864552 29.643882,30.0463816 29.465098,30.1529747 C29.286388,30.2596414 29.054028,30.3307034 28.80376,30.3840368 C28.553566,30.4372966 28.267556,30.4550253 27.945804,30.4728276 L26.444418,30.4728276 L26.444418,27.3988414 Z M32.610912,32.1786115 C32.217676,31.7344368 31.609988,31.4145839 30.787774,31.2191264 C31.163102,31.0770023 31.484854,30.9170759 31.752956,30.7393471 C32.021058,30.5438897 32.235584,30.3484322 32.414294,30.1175172 C32.57517,29.8864552 32.718138,29.6554667 32.789696,29.3889471 C32.879014,29.1401563 32.914756,28.8736368 32.914756,28.5893885 C32.914756,28.0740782 32.825438,27.6299034 32.646654,27.2034575 C32.467944,26.7770115 32.181934,26.4216276 31.806606,26.1373057 C31.431278,25.8530575 30.930742,25.622069 30.323054,25.4621425 C29.715366,25.3022161 28.98247,25.231154 28.124514,25.231154 L23.530964,25.231154 L23.530964,37.6513471 L28.51775,37.6513471 C29.26848,37.6513471 29.929818,37.5624828 30.519672,37.3670253 C31.091618,37.1715678 31.59208,36.9050483 31.985316,36.5674667 C32.39646,36.2298115 32.682396,35.8388966 32.896922,35.3769195 C33.111374,34.9327448 33.218674,34.4352368 33.200766,33.9021241 C33.200766,33.1914299 33.004148,32.6228598 32.610912,32.1786115 Z" id="Fill-71"></path>
                <polyline id="Fill-72" points="42.834826 27.434446 42.834826 25.231154 34.791544 25.231154 34.791544 37.6513471 42.834826 37.6513471 42.834826 35.4302529 37.704998 35.4302529 37.704998 32.4629333 41.637284 32.4629333 41.637284 30.3306299 37.704998 30.3306299 37.704998 27.434446 42.834826 27.434446"></polyline>
                <path d="M73.96004,19.4866759 C72.7383,19.4866759 72.03308,20.3005793 72.03308,21.6529655 C72.03308,23.0177839 72.75088,23.8191816 73.96004,23.8191816 C75.1692,23.8191816 75.87516,23.0177839 75.87516,21.6529655 C75.88774,20.3005793 75.1692,19.4866759 73.96004,19.4866759 Z M73.96004,25.1214713 C71.8318,25.1214713 70.40804,23.618869 70.40804,21.6529655 C70.40804,19.6869885 71.8318,18.1844598 73.96004,18.1844598 C76.07644,18.1844598 77.49946,19.6995678 77.49946,21.6529655 C77.49946,23.6063632 76.08902,25.1214713 73.96004,25.1214713 Z" id="Fill-73"></path>
                <path d="M81.8958,21.5903632 L82.71424,21.5903632 C83.53342,21.5903632 83.87308,21.1770851 83.87308,20.4758805 C83.87308,19.8623632 83.50826,19.4365793 82.71424,19.4365793 L81.8958,19.4365793 L81.8958,21.5903632 Z M81.8958,22.7798805 L81.8958,25.0462897 L80.3085,25.0462897 L80.3085,18.2595678 L82.71424,18.2595678 C84.62936,18.2595678 85.46038,19.2237609 85.46038,20.4758805 C85.46038,21.8282667 84.6042,22.7798805 82.71424,22.7798805 L81.8958,22.7798805 Z" id="Fill-74"></path>
                <polyline id="Fill-75" points="92.75382 18.2595678 92.75382 19.4741701 89.95736 19.4741701 89.95736 21.0518805 92.09892 21.0518805 92.09892 22.2163862 89.95736 22.2163862 89.95736 23.8316874 92.75382 23.8316874 92.75382 25.0462897 88.35748 25.0462897 88.35748 18.2595678 92.75382 18.2595678"></polyline>
                <path d="M97.42692,18.4974713 L100.66368,22.5669885 C100.63852,22.3040736 100.62594,22.0536644 100.62594,21.8407724 L100.62594,18.2470621 L102.02454,18.2470621 L102.02454,25.0338575 L101.20536,25.0338575 C100.96634,25.0338575 100.8028,24.9712552 100.6511,24.770869 L97.4395,20.7263632 C97.45208,20.9642667 97.47724,21.1896644 97.47724,21.389977 L97.47724,25.0212782 L96.07864,25.0212782 L96.07864,18.2344828 L96.9104,18.2344828 C97.17458,18.2595678 97.26338,18.2970851 97.42692,18.4974713" id="Fill-76"></path>
                <path d="M72.34832,33.5861701 L72.59992,33.5861701 C72.83894,33.5861701 73.00322,33.5109885 73.10386,33.3732782 L74.64084,31.156892 C74.80438,30.9190621 75.00566,30.8438805 75.3209,30.8438805 L76.6936,30.8438805 L74.67858,33.5861701 C74.52688,33.7864828 74.37592,33.9116874 74.21238,33.9993747 C74.4514,34.0869885 74.64084,34.2247724 74.80438,34.4876874 L76.86972,37.6306759 L75.45928,37.6306759 C75.09372,37.6306759 74.96792,37.5304828 74.84212,37.3426759 L73.29256,34.9760736 C73.17934,34.8007724 73.02838,34.7381701 72.72572,34.7381701 L72.34832,34.7381701 L72.34832,37.6306759 L70.7736,37.6306759 L70.7736,30.8438805 L72.3609,30.8438805 L72.3609,33.5861701 L72.34832,33.5861701" id="Fill-77"></path>
                <path d="M81.2409,31.0817839 L84.47766,35.1513747 C84.4525,34.8883862 84.43992,34.637977 84.43992,34.4250851 L84.43992,30.8313747 L85.83852,30.8313747 L85.83852,37.6180966 L85.01934,37.6180966 C84.78032,37.6180966 84.61678,37.5554943 84.46508,37.3551816 L81.25348,33.3106759 C81.26606,33.5485793 81.29122,33.773977 81.29122,33.9742897 L81.29122,37.6056644 L79.89336,37.6056644 L79.89336,30.818869 L80.72438,30.818869 C80.98856,30.8438805 81.06478,30.8814713 81.2409,31.0817839" id="Fill-78"></path>
                <path d="M92.41342,32.0709885 C91.19168,32.0709885 90.48646,32.8849655 90.48646,34.2372782 C90.48646,35.6021701 91.20426,36.4034943 92.41342,36.4034943 C93.62258,36.4034943 94.3278,35.6021701 94.3278,34.2372782 C94.3278,32.8849655 93.62258,32.0709885 92.41342,32.0709885 Z M92.41342,37.7057839 C90.28444,37.7057839 88.86142,36.2031816 88.86142,34.2372782 C88.86142,32.2713747 90.28444,30.7687724 92.41342,30.7687724 C94.52982,30.7687724 95.95284,32.2838805 95.95284,34.2372782 C95.95284,36.1906759 94.52982,37.7057839 92.41342,37.7057839 Z" id="Fill-79"></path>
                <path d="M97.6911,30.8438805 L99.0268,30.8438805 C99.30356,30.8438805 99.49226,30.9816644 99.55516,31.181977 L100.48756,34.7256644 C100.55046,34.9509885 100.61336,35.213977 100.6511,35.501977 C100.714,35.213977 100.79022,34.9510621 100.8657,34.7256644 L101.97422,31.181977 C102.02454,31.0066759 102.22582,30.8438805 102.49074,30.8438805 L102.9562,30.8438805 C103.2337,30.8438805 103.40982,30.9690851 103.4853,31.181977 L104.58124,34.7256644 C104.65672,34.9384828 104.7322,35.188892 104.78252,35.4643862 C104.83358,35.188892 104.8839,34.9384828 104.9468,34.7256644 L105.87846,31.181977 C105.92878,30.9941701 106.1308,30.8438805 106.39498,30.8438805 L107.64188,30.8438805 L105.5388,37.6306759 L104.10246,37.6306759 L102.81782,33.4233747 C102.78008,33.2981701 102.72976,33.1353747 102.67944,32.9600736 C102.6417,33.1353747 102.59138,33.2855908 102.54106,33.4233747 L101.2431,37.6306759 L99.8075,37.6306759 L97.6911,30.8438805" id="Fill-80"></path>
                <polyline id="Fill-81" points="112.06338 36.365977 114.59492 36.365977 114.59492 37.6180966 110.47608 37.6180966 110.47608 30.8313747 112.06338 30.8313747 112.06338 36.365977"></polyline>
                <polyline id="Fill-82" points="122.35456 30.8438805 122.35456 32.0584828 119.5581 32.0584828 119.5581 33.6362667 121.69966 33.6362667 121.69966 34.8007724 119.5581 34.8007724 119.5581 36.4160736 122.35456 36.4160736 122.35456 37.6306759 117.95822 37.6306759 117.95822 30.8438805 122.35456 30.8438805"></polyline>
                <path d="M128.32488,32.0584828 L127.26668,32.0584828 L127.26668,36.4160736 L128.32488,36.4160736 C129.53404,36.4160736 130.23926,35.5895908 130.23926,34.2372782 C130.25184,32.8849655 129.53404,32.0584828 128.32488,32.0584828 Z M128.32488,37.6306759 L125.68012,37.6306759 L125.68012,30.8438805 L128.32488,30.8438805 C130.44128,30.8438805 131.8643,32.2838805 131.8643,34.2372782 C131.87688,36.1906759 130.45386,37.6306759 128.32488,37.6306759 Z" id="Fill-83"></path>
                <path d="M138.9683,36.2907954 L138.9683,35.2640736 L138.28824,35.2640736 C138.08696,35.2640736 137.97374,35.1513747 137.97374,34.9885793 L137.97374,34.1245793 L140.40464,34.1245793 L140.40464,36.9920736 C139.712,37.5054713 138.9054,37.7182897 137.7843,37.7182897 C135.79444,37.7182897 134.2952,36.2407724 134.2952,34.2497839 C134.2952,32.2212782 135.70638,30.7812782 137.89826,30.7812782 C139.04452,30.7812782 139.88812,31.1694713 140.44238,31.6953747 L139.98876,32.3840736 C139.9007,32.5092782 139.7749,32.5969655 139.63652,32.5969655 C139.54772,32.5969655 139.44708,32.5593747 139.34644,32.5092782 C138.8425,32.2087724 138.49026,32.0835678 137.85978,32.0835678 C136.67578,32.0835678 135.93282,32.9474943 135.93282,34.2497839 C135.93282,35.6897839 136.77716,36.5036874 137.92342,36.5036874 C138.33856,36.4911816 138.66638,36.4160736 138.9683,36.2907954" id="Fill-84"></path>
                <polyline id="Fill-85" points="148 30.8438805 148 32.0584828 145.20354 32.0584828 145.20354 33.6362667 147.3451 33.6362667 147.3451 34.8007724 145.20354 34.8007724 145.20354 36.4160736 148 36.4160736 148 37.6306759 143.60366 37.6306759 143.60366 30.8438805 148 30.8438805"></polyline>
                <path d="M71.93244,47.1721931 L71.93244,49.4886989 L73.38062,49.4886989 C73.64554,49.4886989 73.8594,49.4636874 74.04884,49.4010851 C74.23754,49.3384828 74.3885,49.2633011 74.50172,49.1506023 C74.62826,49.037977 74.71632,48.9127724 74.76664,48.7749885 C74.81696,48.6247724 74.8547,48.461977 74.8547,48.2866023 C74.8547,47.936 74.7289,47.6730851 74.48914,47.4726989 C74.25012,47.2723862 73.87198,47.1721931 73.38062,47.1721931 L71.93244,47.1721931 Z M71.93244,46.5210851 L73.12902,46.5210851 C73.38062,46.5210851 73.6078,46.4960736 73.7965,46.4333977 C73.9852,46.3707954 74.1369,46.2956874 74.2627,46.1954943 C74.3885,46.0953747 74.47656,45.9701701 74.53946,45.8323862 C74.60236,45.6946023 74.62826,45.5318805 74.62826,45.3690851 C74.62826,44.980892 74.5143,44.692892 74.27528,44.5050851 C74.03626,44.3172782 73.6707,44.2295908 73.16676,44.2295908 L71.93244,44.2295908 L71.93244,46.5210851 Z M71.0252,50.2149885 L71.0252,43.540892 L73.16676,43.540892 C73.58264,43.540892 73.93488,43.5784828 74.23754,43.6660966 C74.53946,43.7537839 74.77922,43.8664828 74.96792,44.0166989 C75.15662,44.1669885 75.30832,44.3422897 75.39638,44.5676874 C75.48444,44.7805793 75.53476,45.0309885 75.53476,45.293977 C75.53476,45.4567724 75.5096,45.6194943 75.45928,45.7697839 C75.40896,45.92 75.33348,46.0577839 75.22026,46.1954943 C75.11888,46.3206989 74.9805,46.4459034 74.82954,46.5460966 C74.666,46.6462897 74.48914,46.7339034 74.27528,46.7965057 C74.76664,46.8966989 75.13146,47.0720736 75.3838,47.3224828 C75.6354,47.572892 75.7612,47.9109885 75.7612,48.3241931 C75.7612,48.6121931 75.71088,48.8626023 75.61024,49.1005793 C75.5096,49.3384828 75.35864,49.5387954 75.15662,49.7015908 C74.95534,49.8643862 74.70374,50.0020966 74.41366,50.0897839 C74.12432,50.1773977 73.78392,50.2274943 73.41836,50.2274943 L71.0252,50.2274943 L71.0252,50.2149885 Z" id="Fill-86"></path>
                <polyline id="Fill-87" points="84.02478 43.540892 84.02478 44.2796874 80.79986 44.2796874 80.79986 46.4960736 83.40762 46.4960736 83.40762 47.2097839 80.79986 47.2097839 80.79986 49.4887724 84.02478 49.4887724 84.02478 50.2274943 79.89336 50.2274943 79.89336 43.5534713 84.02478 43.5534713 84.02478 43.540892"></polyline>
                <polyline id="Fill-88" points="89.0627 49.4511816 91.97238 49.4511816 91.97238 50.2149885 88.1562 50.2149885 88.1562 43.540892 89.0627 43.540892 89.0627 49.4511816"></polyline>
                <path d="M98.76188,49.5513011 C98.938,49.5513011 99.11486,49.5387954 99.26582,49.5262897 C99.41678,49.5137839 99.55516,49.4886989 99.69428,49.4511816 C99.83266,49.4135908 99.95846,49.376 100.07168,49.325977 C100.18564,49.2758805 100.31144,49.2257839 100.42466,49.1631816 L100.42466,47.6855908 L99.37904,47.6855908 C99.31614,47.6855908 99.2784,47.6730851 99.24066,47.6354943 C99.20292,47.597977 99.19034,47.5603862 99.19034,47.5102897 L99.19034,46.996892 L101.25568,46.996892 L101.25568,49.5638805 C101.09214,49.6890851 100.91602,49.7892782 100.72732,49.876892 C100.55046,49.9645057 100.34918,50.0396874 100.1479,50.1022897 C99.94588,50.164892 99.71944,50.2024828 99.47968,50.2400736 C99.24066,50.2650851 98.98906,50.2900966 98.71156,50.2900966 C98.2202,50.2900966 97.77916,50.2024828 97.3766,50.0396874 C96.9733,49.876892 96.62032,49.6389885 96.33098,49.3384828 C96.0409,49.037977 95.81446,48.6747954 95.65092,48.2615908 C95.48664,47.8483862 95.39858,47.3850851 95.39858,46.8841931 C95.39858,46.3707954 95.47406,45.9074943 95.63834,45.4942897 C95.80188,45.0810851 96.02832,44.717977 96.33098,44.4173977 C96.6329,44.116892 96.98588,43.8914943 97.41434,43.7161931 C97.8428,43.5534713 98.30826,43.4657839 98.83736,43.4657839 C99.10228,43.4657839 99.35388,43.4907954 99.58106,43.5283862 C99.8075,43.5659034 100.02136,43.6285793 100.2108,43.6911816 C100.41208,43.7662897 100.5882,43.853977 100.75248,43.9540966 C100.91602,44.0542897 101.06698,44.1794943 101.21794,44.3046989 L100.96634,44.717977 C100.91602,44.8055908 100.84054,44.8431816 100.76506,44.8431816 C100.71474,44.8431816 100.66368,44.8306023 100.60078,44.7930851 C100.5253,44.7554943 100.43724,44.692892 100.3366,44.6302897 C100.23596,44.5676874 100.122,44.5050851 99.98362,44.4549885 C99.84524,44.404892 99.6817,44.3547954 99.49226,44.3046989 C99.30356,44.2546023 99.07712,44.2420966 98.82478,44.2420966 C98.44738,44.2420966 98.10698,44.3046989 97.80506,44.429977 C97.5024,44.5551816 97.23822,44.7304828 97.02362,44.9558805 C96.80976,45.1812046 96.64622,45.4567724 96.53226,45.7822897 C96.41904,46.1078805 96.35614,46.4709885 96.35614,46.8716874 C96.35614,47.2974713 96.41904,47.6730851 96.53226,47.9986023 C96.6588,48.3241931 96.82234,48.6121931 97.0362,48.8375908 C97.2508,49.0629885 97.51498,49.2382897 97.81764,49.3634943 C98.06924,49.4886989 98.40964,49.5513011 98.76188,49.5513011" id="Fill-89"></path>
                <polygon id="Fill-90" points="105.62686 43.540892 106.528745 43.540892 106.528745 50.2149885 105.62686 50.2149885"></polygon>
                <path d="M113.7639,49.4886989 C114.04066,49.4886989 114.293,49.4386759 114.50686,49.3509885 C114.72146,49.2633011 114.91016,49.1255908 115.06112,48.9627954 C115.21282,48.8 115.32604,48.5996874 115.4141,48.3617839 C115.50216,48.1238805 115.52732,47.8733977 115.52732,47.597977 L115.52732,43.540892 L116.43456,43.540892 L116.43456,47.597977 C116.43456,47.9860966 116.37092,48.3367724 116.24512,48.6747954 C116.11932,49.0003862 115.9432,49.2883862 115.71602,49.5262897 C115.48958,49.7641931 115.21282,49.9520736 114.87242,50.0897839 C114.5446,50.2274943 114.1672,50.2900966 113.75132,50.2900966 C113.33544,50.2900966 112.97062,50.2274943 112.63022,50.0897839 C112.28982,49.9520736 112.01306,49.7641931 111.78662,49.5262897 C111.55944,49.2883862 111.38332,49.0003862 111.25752,48.6747954 C111.13098,48.3492046 111.06808,47.9860966 111.06808,47.597977 L111.06808,43.540892 L111.97532,43.540892 L111.97532,47.597977 C111.97532,47.8733977 112.01306,48.1363862 112.08854,48.3617839 C112.16402,48.5871816 112.27724,48.8 112.44152,48.9627954 C112.60506,49.1255908 112.78118,49.2633011 112.99578,49.3509885 C113.20964,49.4386759 113.47382,49.4886989 113.7639,49.4886989" id="Fill-91"></path>
                <path d="M124.21862,48.0361931 C124.25636,48.1238805 124.28152,48.1989885 124.31926,48.2866023 C124.34442,48.1989885 124.38216,48.1113747 124.4199,48.0361931 C124.45764,47.9610851 124.49612,47.8733977 124.53386,47.7982897 L126.80048,43.6911816 C126.83896,43.6160736 126.88928,43.5784828 126.92702,43.5659034 C126.96476,43.5534713 127.02766,43.540892 127.11572,43.540892 L127.7832,43.540892 L127.7832,50.2149885 L126.98992,50.2149885 L126.98992,45.3064828 L126.98992,45.0935908 C126.98992,45.0184828 127.0025,44.9433747 127.0025,44.8681931 L124.6974,49.037977 C124.62192,49.1756874 124.5087,49.2507954 124.36958,49.2507954 L124.24378,49.2507954 C124.1054,49.2507954 123.99218,49.1756874 123.9167,49.037977 L121.56054,44.8556874 C121.57312,44.9307954 121.57312,45.0184828 121.5857,45.0935908 C121.5857,45.1687724 121.59902,45.2438805 121.59902,45.3064828 L121.59902,50.2149885 L120.805,50.2149885 L120.805,43.540892 L121.47248,43.540892 C121.54796,43.540892 121.6116,43.5534713 121.66192,43.5659034 C121.69966,43.5784828 121.74998,43.6285793 121.78772,43.6911816 L124.1054,47.7982897 C124.14314,47.8733977 124.18088,47.9485793 124.21862,48.0361931" id="Fill-92"></path>
            </g>
        </g>
    </g>
</svg>